<?xml version="1.0" encoding="UTF-8" standalone="no"?><!DOCTYPE svg PUBLIC "-//W3C//DTD SVG 1.1//EN" "http://www.w3.org/Graphics/SVG/1.1/DTD/svg11.dtd"><svg width="100%" height="100%" viewBox="0 0 114 114" version="1.1" xmlns="http://www.w3.org/2000/svg" xmlns:xlink="http://www.w3.org/1999/xlink" xml:space="preserve" xmlns:serif="http://www.serif.com/" style="fill-rule:evenodd;clip-rule:evenodd;stroke-linejoin:round;stroke-miterlimit:2;"><g><path d="M8.69,78.557c-0.719,0.132 -5.445,2.101 -5.908,2.508c-3.561,3.124 2.665,11.568 8.278,6.699c1.219,-1.054 2.984,-2.317 4.562,-1.139c2.224,0.737 4.05,7.002 11.434,5.378c4.385,-0.962 6.244,-6.937 11.538,-2.046c3.12,2.882 6.067,5.955 12.337,4.375c2.153,-0.541 3.973,-1.898 5.355,-3.345c1.888,-1.973 2.644,-2.631 5.911,-2.82c-2.13,-2.162 -7.922,-4.683 -11.247,-5.895c-2.043,-0.748 -4.15,-1.561 -6.327,-2.336c-3.113,-1.111 -2.816,-1.636 -4.952,-3.592l-0.964,0.752c-0.739,0.697 -1.377,1.302 -2.392,1.776c-4.472,2.09 -5.714,-4.759 -13.024,-3.564c-4.171,0.682 -4.934,3.402 -6.698,4.885c-3.704,3.119 -5.114,-1.725 -7.903,-1.636Z" style="fill:#14b47d;"/><path d="M62.197,88.167c-3.267,0.189 -4.023,0.847 -5.911,2.82c-1.382,1.447 -3.202,2.804 -5.355,3.345c-6.27,1.58 -9.217,-1.493 -12.337,-4.375c-5.294,-4.891 -7.153,1.084 -11.538,2.046c-7.384,1.624 -9.21,-4.641 -11.434,-5.378c-4.999,1.249 -4.475,8.436 0.578,8.69c3.281,0.166 3.432,-2.276 5.53,-2.348c1.705,-0.056 4.092,3.001 4.453,3.638c-1.38,-0.16 -1.593,-0.706 -3.26,-0.378c-0.344,1.102 -0.344,1.008 -0.063,2.13c2.221,0.522 3.589,-0.722 5.678,-0.75c2.551,-0.038 2.938,0.985 4.265,2.33c4.426,4.493 5.661,-1.03 9.533,-0.079c1.295,0.317 2.718,1.914 4.009,2.568c1.74,0.883 3.275,-0.164 4.513,-1.118c4.942,-3.809 4.806,0.663 9.718,0.26l0.139,-0.669c0.008,-0.041 0.018,-0.126 0.025,-0.17l0.061,-0.334c0.005,-0.032 0.007,-0.121 0.037,-0.17l0.526,0.281c0.281,0.119 -0.18,0.174 0.682,0.21c1.748,-2.121 1.429,-1.172 1.576,-2.213c0,-0.004 -0.096,-2.349 1.65,-1.389c-0.58,0.404 -0.847,0.179 -1.147,1.168c2.187,-0.692 -0.14,-0.371 3.026,-0.647c-0.497,-0.846 -2.132,-2.273 -2.23,-3.006l1.228,0.468c0.051,0.029 0.13,0.091 0.202,0.127l1.741,-1.259c-0.96,-1.357 -1.523,-2.111 -2.695,-3.254c-0.558,-0.545 -2.374,-2.266 -3.2,-2.544Z" style="fill:#9bcb41;"/><path d="M25.414,29.867c-0.501,0.202 -1.055,1.4 -2.357,2.152c-4.243,2.448 -4.725,-4.101 -10.673,-2.277c-5.614,1.723 -4.601,10.54 0.921,10.925c2.226,-0.035 3.241,-0.009 4.626,-1.169c0.237,-0.201 0.435,-0.433 0.673,-0.641c0.267,-0.231 0.144,-0.134 0.439,-0.352c4.114,-3.048 5.821,2.769 9.26,4.493c6.624,3.317 10.399,-2.34 12.68,-3.019c1.563,-0.466 3.855,-0.181 4.386,1.206l0.947,-0.442l0.038,-1.038c0.357,-3.235 0.765,-7.529 -0.011,-10.918c-1.539,1.061 -2.894,2.404 -5.368,1.518c-2.362,-0.843 -5.403,-5.411 -11.213,-3.642c-1.204,0.367 -2.723,1.098 -3.464,2.02l-0.884,1.184Z" style="fill:#b4151c;"/><path d="M25.414,29.867l0.884,-1.184c0.741,-0.922 2.26,-1.653 3.464,-2.02c5.81,-1.769 8.851,2.799 11.213,3.642c2.474,0.886 3.829,-0.457 5.368,-1.518c0.776,3.389 0.368,7.683 0.011,10.918c1.527,-2.23 0.189,-12.297 -0.491,-14.962c-1.845,-7.218 -6.534,-10.436 -13.035,-12.496c-1.153,-0.367 -2.166,-0.545 -3.474,-0.769c-2.653,-0.458 -1.678,-0.549 -4.859,2.547c-0.765,0.747 -1.493,1.31 -3.031,1.378c-4.003,0.178 -8.662,-3.566 -7.696,1.429c3.113,1.478 7.199,-3.036 10.978,0.844l2.282,2.505c-1.45,0.998 -2.883,1.831 -3.251,3.955c-0.191,1.1 -0.1,2.104 0.319,3.071c0.921,2.127 1.295,0.42 1.318,2.66Z" style="fill:#f36e26;"/><path d="M43.154,48.834l-0.546,0.612c-0.043,0.04 -0.098,0.091 -0.14,0.129l-1.336,1.041c-0.771,0.629 -1.106,1.021 -1.846,1.846c-10.724,11.971 -13.621,-3.819 -24.917,-1.829c-3.553,0.626 -7.584,2.576 -8.932,5.35c0.565,0.433 1.716,4.23 2.871,6.477c0.144,0.28 0.325,0.698 0.529,1.043l0.817,0.987c2.521,-0.544 2.685,-1.618 3.56,-2.665c0.567,-0.68 1.333,-1.448 2.128,-1.771c5.317,-4.753 9.374,-1.652 14.972,1.151c1.149,0.575 1.718,0.779 3.069,1.242c1.138,0.389 1.938,0.659 3.557,0.584c1.966,-0.093 1.996,-0.654 3.565,-1.074c0.553,-1.237 1.1,-2.464 1.591,-3.806c1.323,-3.606 0.692,-1.113 2.576,-3.217c1.871,-2.088 2.183,-5.58 3.011,-8.306c-1.645,0.554 -2.677,1.573 -4.529,2.206Z" style="fill:#28287f;"/><path d="M9.654,64.49c0.319,0.909 1.285,2.073 2.077,2.943c1.597,1.746 0.975,6.565 -0.375,8.561c-0.875,1.296 -2.232,1.886 -2.666,2.563c2.789,-0.089 4.199,4.755 7.903,1.636c1.764,-1.483 2.527,-4.203 6.698,-4.885c7.31,-1.195 8.552,5.654 13.024,3.564c1.015,-0.474 1.653,-1.079 2.392,-1.776l0.964,-0.752c-1.359,-2.705 -2.631,-5.347 -2.425,-9.138l-0.565,1.262c-0.914,0.129 -1.351,0.626 -2.39,0.883c-4.228,1.045 -8.824,-1.285 -12.366,-3.187c-0.293,-0.158 -0.257,-0.139 -0.52,-0.276c-1.716,-0.89 -3.347,-1.234 -3.538,-2.553c-0.019,-0.123 -0.049,-0.159 -0.091,-0.229c-2.409,0.104 0.074,0.465 -1.77,0.513c-0.535,0.015 -1.63,-0.252 -1.936,-0.376c-0.002,-2.852 0.65,-1.1 1.962,-2.102l0.089,-0.788c-0.223,-0.259 0.391,-0.278 -0.779,-0.299c-0.795,0.323 -1.561,1.091 -2.128,1.771c-0.875,1.047 -1.039,2.121 -3.56,2.665Z" style="fill:#32bdc9;"/><path d="M13.305,40.667l0.762,0.244c0.054,0.023 0.137,0.059 0.188,0.083l0.373,0.193c-1.138,1.121 -2.104,3.141 -4.481,3.255c-3.209,0.155 -7.044,-6.681 -9.748,-1.473c-0.957,1.841 0.068,4.383 0.383,6.407c2.455,-0.752 3.045,-5.738 10.433,-1.901c4.723,2.451 6.769,3.345 10.942,-0.085c2.947,-2.425 6.046,-4.765 10.393,-1.824c4.118,2.786 4.778,5.046 10.604,3.268c1.852,-0.633 2.884,-1.652 4.529,-2.206c0.17,-1.209 0.368,-2.3 -0.089,-3.475c-0.516,-1.325 -1.059,-0.89 -1.278,-2.41l-0.947,0.442c-0.531,-1.387 -2.823,-1.672 -4.386,-1.206c-2.281,0.679 -6.056,6.336 -12.68,3.019c-3.439,-1.724 -5.146,-7.541 -9.26,-4.493c-0.295,0.218 -0.172,0.121 -0.439,0.352c-0.238,0.208 -0.436,0.44 -0.673,0.641c-1.385,1.16 -2.4,1.134 -4.626,1.169Z" style="fill:#b71384;"/><path d="M0.782,49.376c0.613,1.208 0.866,2.506 1.558,3.831c0.652,1.246 1.162,2.448 3.097,2.776c1.348,-2.774 5.379,-4.724 8.932,-5.35c11.296,-1.99 14.193,13.8 24.917,1.829c0.74,-0.825 1.075,-1.217 1.846,-1.846l1.336,-1.041c0.042,-0.038 0.097,-0.089 0.14,-0.129l0.546,-0.612c-5.826,1.778 -6.486,-0.482 -10.604,-3.268c-4.347,-2.941 -7.446,-0.601 -10.393,1.824c-4.173,3.43 -6.219,2.536 -10.942,0.085c-7.388,-3.837 -7.978,1.149 -10.433,1.901Z" style="fill:#6a509e;"/><path d="M15.342,60.054c1.17,0.021 0.556,0.04 0.779,0.299l-0.089,0.788c-1.312,1.002 -1.964,-0.75 -1.962,2.102c0.306,0.124 1.401,0.391 1.936,0.376c1.844,-0.048 -0.639,-0.409 1.77,-0.513c0.042,0.07 0.072,0.106 0.091,0.229c0.191,1.319 1.822,1.663 3.538,2.553c0.263,0.137 0.227,0.118 0.52,0.276c3.542,1.902 8.138,4.232 12.366,3.187c1.039,-0.257 1.476,-0.754 2.39,-0.883l0.565,-1.262c1.212,-1.2 2.637,-3.786 3.259,-5.249c-1.569,0.42 -1.599,0.981 -3.565,1.074c-1.619,0.075 -2.419,-0.195 -3.557,-0.584c-1.351,-0.463 -1.92,-0.667 -3.069,-1.242c-5.598,-2.803 -9.655,-5.904 -14.972,-1.151Z" style="fill:#0f88b0;"/><path d="M0.967,33.542c-0.052,6.66 4.083,4.043 4.657,2.775c0.9,-1.979 -0.96,-5.746 -4.657,-2.775Z" style="fill:#e06261;"/><path d="M60.706,51.688l7.044,0l0,-5.419l-7.044,0l0,-1.355l7.584,0l0,-5.415l-14.628,0l0,18.96l15.171,0l0,-5.416l-8.127,0l0,-1.355Zm16.388,1.625c-2.709,0 -4.606,-1.762 -4.606,-1.762l-2.572,4.064c0,0 2.438,3.25 8.397,3.25c4.739,0 7.72,-2.978 7.72,-6.093c0,-5.96 -7.314,-5.96 -7.314,-7.316c0,-0.404 0.406,-0.81 1.085,-0.81c1.893,0 3.521,1.489 3.521,1.489l2.572,-4.065c0,0 -2.438,-2.977 -7.314,-2.977c-4.74,0 -7.719,2.977 -7.719,6.093c0,5.959 7.312,5.959 7.312,7.314c0,0.407 -0.406,0.813 -1.082,0.813Zm18.149,-13.814l-7.044,0l0,18.96l7.044,0l0,-18.96Zm10.292,12.189l7.044,0l0,-5.419l-7.044,0l0,-1.355l7.584,0l0,-5.415l-14.626,0l0,18.96l15.169,0l0,-5.416l-8.127,0l0,-1.355Z" style="fill:#231f20;"/><path d="M57.682,65.318l-2.445,0l0,-3.211l2.604,0l0,-0.97l-3.718,0l0,9.75l3.892,0l0,-0.967l-2.778,0l0,-3.663l2.445,0l0,-0.939Zm7.668,5.569l1.041,0l-0.563,-9.75l-1.246,0l-1.098,4.457c-0.319,1.315 -0.535,2.241 -0.724,3.354l-0.043,0c-0.202,-1.113 -0.448,-2.069 -0.781,-3.354l-1.143,-4.457l-1.2,0l-0.578,9.75l0.996,0l0.189,-4.122c0.058,-1.391 0.115,-2.748 0.115,-3.893l0.043,0c0.187,1.13 0.478,2.33 0.796,3.574l1.143,4.383l0.709,0l1.202,-4.572c0.302,-1.142 0.563,-2.3 0.781,-3.385l0.056,0c-0.043,1.1 0.031,2.533 0.102,3.822l0.203,4.193Zm2.56,0l1.114,0l0,-3.993c0.158,0.015 0.304,0.015 0.493,0.015c0.867,0 1.765,-0.361 2.3,-1.085c0.376,-0.491 0.591,-1.098 0.591,-1.996c0,-0.839 -0.243,-1.547 -0.722,-2.01c-0.506,-0.507 -1.258,-0.724 -2.156,-0.724c-0.635,0 -1.172,0.072 -1.62,0.187l0,9.606Zm1.114,-8.811c0.145,-0.041 0.362,-0.071 0.621,-0.071c1.231,0 1.65,0.897 1.65,1.895c0,1.374 -0.737,2.098 -1.837,2.098c-0.189,0 -0.304,-0.015 -0.434,-0.043l0,-3.879Zm4.658,-0.939l0,9.75l1.115,0l0,-9.75l-1.115,0Zm2.879,9.75l1.115,0l0,-4.254l0.434,0c0.955,0 1.374,0.507 1.59,1.837c0.189,1.202 0.378,2.128 0.521,2.417l1.129,0c-0.131,-0.304 -0.333,-1.128 -0.55,-2.474c-0.216,-1.273 -0.594,-1.967 -1.316,-2.182l0,-0.031c0.983,-0.448 1.561,-1.258 1.561,-2.502c0,-0.767 -0.202,-1.417 -0.68,-1.911c-0.505,-0.491 -1.228,-0.693 -2.198,-0.693c-0.55,0 -1.128,0.058 -1.606,0.187l0,9.606Zm1.115,-8.839c0.143,-0.043 0.361,-0.058 0.578,-0.058c1.2,0.015 1.663,0.708 1.663,1.838c0,1.172 -0.709,1.953 -1.778,1.953l-0.463,0l0,-3.733Zm8.361,3.27l-2.446,0l0,-3.211l2.604,0l0,-0.97l-3.717,0l0,9.75l3.891,0l0,-0.967l-2.778,0l0,-3.663l2.446,0l0,-0.939Zm3.369,5.237c0.276,0.202 0.985,0.419 1.65,0.419c1.548,0 2.733,-1.054 2.733,-2.734c0,-1.085 -0.52,-1.983 -1.691,-2.805c-0.926,-0.667 -1.433,-1.043 -1.433,-2.013c0,-0.665 0.448,-1.387 1.404,-1.387c0.507,0 0.911,0.159 1.157,0.333l0.276,-0.955c-0.233,-0.174 -0.767,-0.363 -1.374,-0.363c-1.55,0 -2.576,1.085 -2.576,2.561c0,1.259 1.07,2.17 1.837,2.705c0.767,0.578 1.287,1.128 1.287,2.026c0,0.982 -0.607,1.649 -1.62,1.649c-0.493,0 -1.071,-0.173 -1.404,-0.391l-0.246,0.955Zm6.829,0.332l1.115,0l0,-8.752l1.778,0l0,-0.998l-4.674,0l0,0.998l1.781,0l0,8.752Zm6.654,-2.922l0.652,2.922l1.098,0l-2.169,-9.75l-1.229,0l-2.228,9.75l1.07,0l0.652,-2.922l2.154,0Zm-1.996,-0.897l0.507,-2.474c0.13,-0.65 0.274,-1.489 0.391,-2.226l0.057,0c0.117,0.721 0.245,1.532 0.391,2.226l0.507,2.474l-1.853,0Zm5.237,3.819l1.114,0l0,-8.752l1.778,0l0,-0.998l-4.672,0l0,0.998l1.78,0l0,8.752Zm7.535,-5.569l-2.443,0l0,-3.211l2.604,0l0,-0.97l-3.717,0l0,9.75l3.891,0l0,-0.967l-2.778,0l0,-3.663l2.443,0l0,-0.939Z" style="fill:#00aeef;"/><path d="M54.483,72.853l0,5.271l0.601,0l0,-5.271l-0.601,0Zm4.853,5.271l0.563,0l-0.304,-5.271l-0.673,0l-0.593,2.408c-0.172,0.712 -0.29,1.213 -0.392,1.814l-0.022,0c-0.11,-0.601 -0.242,-1.119 -0.424,-1.814l-0.616,-2.408l-0.65,0l-0.312,5.271l0.539,0l0.102,-2.23c0.03,-0.751 0.062,-1.484 0.062,-2.102l0.025,0c0.1,0.609 0.257,1.259 0.429,1.93l0.616,2.37l0.384,0l0.65,-2.472c0.164,-0.616 0.304,-1.242 0.421,-1.828l0.032,0c-0.024,0.594 0.015,1.367 0.055,2.062l0.108,2.27Zm4.683,0l0.563,0l-0.304,-5.271l-0.673,0l-0.593,2.408c-0.172,0.712 -0.291,1.213 -0.391,1.814l-0.023,0c-0.112,-0.601 -0.244,-1.119 -0.423,-1.814l-0.618,-2.408l-0.649,0l-0.313,5.271l0.54,0l0.102,-2.23c0.03,-0.751 0.062,-1.484 0.062,-2.102l0.023,0c0.102,0.609 0.259,1.259 0.431,1.93l0.616,2.37l0.384,0l0.65,-2.472c0.162,-0.616 0.304,-1.242 0.421,-1.828l0.033,0c-0.025,0.594 0.015,1.367 0.052,2.062l0.11,2.27Zm3.307,-3.011l-1.321,0l0,-1.735l1.408,0l0,-0.525l-2.009,0l0,5.271l2.102,0l0,-0.526l-1.501,0l0,-1.978l1.321,0l0,-0.507Zm0.845,3.011l0.603,0l0,-2.3l0.234,0c0.516,0 0.741,0.274 0.86,0.992c0.101,0.65 0.203,1.151 0.28,1.308l0.611,0c-0.07,-0.165 -0.18,-0.613 -0.297,-1.338c-0.117,-0.688 -0.321,-1.064 -0.713,-1.18l0,-0.017c0.531,-0.241 0.845,-0.68 0.845,-1.351c0,-0.416 -0.109,-0.765 -0.367,-1.032c-0.274,-0.266 -0.665,-0.376 -1.188,-0.376c-0.297,0 -0.611,0.03 -0.868,0.1l0,5.194Zm0.603,-4.778c0.078,-0.023 0.195,-0.03 0.312,-0.03c0.648,0.007 0.9,0.382 0.9,0.992c0,0.633 -0.384,1.055 -0.962,1.055l-0.25,0l0,-2.017Zm2.344,4.596c0.149,0.11 0.533,0.227 0.892,0.227c0.835,0 1.478,-0.571 1.478,-1.476c0,-0.588 -0.282,-1.073 -0.915,-1.517c-0.501,-0.36 -0.775,-0.564 -0.775,-1.087c0,-0.361 0.242,-0.75 0.76,-0.75c0.272,0 0.491,0.085 0.623,0.179l0.15,-0.516c-0.125,-0.092 -0.416,-0.196 -0.743,-0.196c-0.837,0 -1.393,0.587 -1.393,1.385c0,0.68 0.578,1.172 0.994,1.461c0.414,0.314 0.696,0.61 0.696,1.094c0,0.531 -0.327,0.892 -0.875,0.892c-0.267,0 -0.579,-0.094 -0.758,-0.212l-0.134,0.516Zm3.073,-5.089l0,5.271l0.601,0l0,-5.271l-0.601,0Zm3.033,5.271l1.227,-5.271l-0.641,0l-0.501,2.455c-0.125,0.625 -0.272,1.361 -0.352,2.039l-0.022,0c-0.095,-0.671 -0.25,-1.429 -0.376,-2.024l-0.516,-2.47l-0.641,0l1.204,5.271l0.618,0Zm3.736,-3.011l-1.321,0l0,-1.735l1.408,0l0,-0.525l-2.009,0l0,5.271l2.102,0l0,-0.526l-1.501,0l0,-1.978l1.321,0l0,-0.507Zm3.996,0l-1.321,0l0,-1.735l1.406,0l0,-0.525l-2.007,0l0,5.271l2.101,0l0,-0.526l-1.5,0l0,-1.978l1.321,0l0,-0.507Zm3.33,3.011l-1.087,-2.707l1.032,-2.564l-0.618,0l-0.429,1.196c-0.087,0.259 -0.165,0.493 -0.282,0.86l-0.015,0c-0.126,-0.342 -0.212,-0.593 -0.314,-0.837l-0.468,-1.219l-0.626,0l1.049,2.581l-1.089,2.69l0.618,0l0.454,-1.253c0.102,-0.282 0.204,-0.586 0.321,-0.938l0.023,0c0.117,0.359 0.212,0.634 0.321,0.923l0.477,1.268l0.633,0Zm0.578,0l0.601,0l0,-2.158c0.087,0.007 0.166,0.007 0.266,0.007c0.469,0 0.955,-0.196 1.244,-0.588c0.204,-0.264 0.321,-0.593 0.321,-1.077c0,-0.454 -0.134,-0.835 -0.391,-1.087c-0.274,-0.274 -0.68,-0.391 -1.166,-0.391c-0.344,0 -0.633,0.038 -0.875,0.1l0,5.194Zm0.601,-4.763c0.079,-0.022 0.197,-0.038 0.338,-0.038c0.664,0 0.89,0.484 0.89,1.025c0,0.741 -0.398,1.132 -0.992,1.132c-0.102,0 -0.166,-0.008 -0.236,-0.025l0,-2.094Zm4.441,1.752l-1.321,0l0,-1.735l1.406,0l0,-0.525l-2.009,0l0,5.271l2.104,0l0,-0.526l-1.501,0l0,-1.978l1.321,0l0,-0.507Zm0.845,3.011l0.601,0l0,-2.3l0.234,0c0.518,0 0.743,0.274 0.86,0.992c0.102,0.65 0.205,1.151 0.282,1.308l0.61,0c-0.07,-0.165 -0.179,-0.613 -0.296,-1.338c-0.117,-0.688 -0.322,-1.064 -0.713,-1.18l0,-0.017c0.531,-0.241 0.845,-0.68 0.845,-1.351c0,-0.416 -0.11,-0.765 -0.367,-1.032c-0.274,-0.266 -0.665,-0.376 -1.188,-0.376c-0.299,0 -0.611,0.03 -0.868,0.1l0,5.194Zm0.601,-4.778c0.079,-0.023 0.197,-0.03 0.314,-0.03c0.648,0.007 0.898,0.382 0.898,0.992c0,0.633 -0.382,1.055 -0.962,1.055l-0.25,0l0,-2.017Zm2.597,-0.493l0,5.271l0.601,0l0,-5.271l-0.601,0Zm3.477,2.26l-1.321,0l0,-1.735l1.408,0l0,-0.525l-2.009,0l0,5.271l2.104,0l0,-0.526l-1.503,0l0,-1.978l1.321,0l0,-0.507Zm1.393,3.011l0,-1.822c0,-1.126 -0.017,-1.797 -0.062,-2.502l0.015,0c0.187,0.655 0.414,1.256 0.626,1.789l0.999,2.535l0.571,0l0,-5.271l-0.539,0l0,1.886c0,0.913 0.023,1.593 0.07,2.423l-0.015,0c-0.181,-0.573 -0.453,-1.276 -0.673,-1.839l-0.969,-2.47l-0.571,0l0,5.271l0.548,0Zm5.292,-0.605c-0.125,0.062 -0.329,0.119 -0.556,0.119c-0.64,0 -1.234,-0.533 -1.234,-2.143c0,-1.61 0.656,-2.156 1.219,-2.156c0.274,0 0.407,0.054 0.531,0.109l0.133,-0.508c-0.11,-0.072 -0.335,-0.134 -0.656,-0.134c-0.828,0 -1.862,0.667 -1.862,2.744c0,1.791 0.735,2.619 1.767,2.619c0.329,0 0.586,-0.055 0.751,-0.14l-0.093,-0.51Zm2.635,-2.406l-1.322,0l0,-1.735l1.407,0l0,-0.525l-2.009,0l0,5.271l2.103,0l0,-0.526l-1.501,0l0,-1.978l1.322,0l0,-0.507Zm0.593,2.829c0.149,0.11 0.531,0.227 0.892,0.227c0.835,0 1.476,-0.571 1.476,-1.476c0,-0.588 -0.28,-1.073 -0.913,-1.517c-0.501,-0.36 -0.775,-0.564 -0.775,-1.087c0,-0.361 0.242,-0.75 0.758,-0.75c0.274,0 0.493,0.085 0.626,0.179l0.149,-0.516c-0.125,-0.092 -0.414,-0.196 -0.743,-0.196c-0.837,0 -1.391,0.587 -1.391,1.385c0,0.68 0.579,1.172 0.993,1.461c0.413,0.314 0.695,0.61 0.695,1.094c0,0.531 -0.329,0.892 -0.875,0.892c-0.266,0 -0.578,-0.094 -0.76,-0.212l-0.132,0.516Z" style="fill:#00aeef;"/></g></svg>